<svg clip-rule="evenodd" fill-rule="evenodd" stroke-linejoin="round" stroke-miterlimit="2" viewBox="0 0 96 96" xmlns="http://www.w3.org/2000/svg" width="300" height="300" version="1.1" xmlns:xlink="http://www.w3.org/1999/xlink" xmlns:svgjs="http://svgjs.dev/svgjs"><g width="100%" height="100%" transform="matrix(1,0,0,1,0,0)"><g transform="translate(-3652 -392)"><path d="m3728 402c0-5.523-4.48-10-10-10h-35.98c-5.52 0-10 4.477-10 10v22c0 5.523 4.48 10 10 10h35.98c5.52 0 10-4.477 10-10zm-37.95 13.394-13.95 9.601c.48 2.84 2.95 5.005 5.92 5.005h35.98c2.97 0 5.44-2.165 5.92-5.004l-13.96-9.596-8.82 6.038c-.68.466-1.58.466-2.26 0zm23.45-2.415 10.5 7.219v-14.406zm-37.48 7.216 10.49-7.222-10.49-7.181zm47.9-19.193-23.91 16.362-23.91-16.362c.48-2.839 2.95-5.002 5.92-5.002h35.98c2.97 0 5.44 2.163 5.92 5.002z" fill="#8d98ab" fill-opacity="1" data-original-color="#009fdfff" stroke="none" stroke-opacity="1"/><path d="m3741 452h-27c-.53 0-1.04.211-1.41.586-.38.375-.59.884-.59 1.414 0 3.182-1.26 6.236-3.51 8.486s-5.31 3.514-8.49 3.514c-3.18 0-6.24-1.264-8.49-3.514s-3.51-5.302-3.51-8.484c0-1.104-.89-2-2-2l-27-.002v-40c0-3.314 2.69-6 6-6h2c1.1 0 2-.896 2-2s-.9-2-2-2h-2c-5.52 0-10 4.477-10 10v66c0 5.523 4.48 10 10 10h70c5.52 0 10-4.477 10-10v-66c0-5.523-4.48-10-10-10h-2c-1.1 0-2 .896-2 2s.9 2 2 2h2c3.31 0 6 2.686 6 6zm0 4h-25.12c-.45 3.506-2.04 6.789-4.57 9.314-3 3-7.07 4.686-11.31 4.686-4.24 0-8.31-1.686-11.31-4.686-2.53-2.525-4.12-5.807-4.57-9.312l-25.12-.002v22c0 3.314 2.69 6 6 6h70c3.31 0 6-2.686 6-6z" fill="#8d98ab" fill-opacity="1" data-original-color="#181818ff" stroke="none" stroke-opacity="1"/></g></g></svg>